<svg width="640" height="420" viewBox="0 0 640 420" fill="none" xmlns="http://www.w3.org/2000/svg">
  <defs>
    <linearGradient id="gradient" x1="0" y1="0" x2="1" y2="1">
      <stop offset="0%" stop-color="#3FE0FF" />
      <stop offset="100%" stop-color="#5B62FF" />
    </linearGradient>
    <linearGradient id="glow" x1="0" y1="0" x2="1" y2="1">
      <stop offset="0%" stop-color="#6DFFA8" stop-opacity="0.9" />
      <stop offset="100%" stop-color="#00D1FF" stop-opacity="0.2" />
    </linearGradient>
  </defs>
  <rect width="640" height="420" rx="32" fill="#0F172A" />
  <rect x="48" y="60" width="544" height="300" rx="24" fill="#101B38" stroke="#20305F" />
  <rect x="88" y="104" width="220" height="32" rx="16" fill="#1E2A52" />
  <rect x="88" y="156" width="160" height="14" rx="7" fill="#223560" />
  <rect x="88" y="182" width="190" height="14" rx="7" fill="#223560" />
  <rect x="88" y="208" width="130" height="14" rx="7" fill="#223560" />
  <circle cx="458" cy="200" r="88" fill="url(#gradient)" />
  <circle cx="458" cy="200" r="60" fill="#0F172A" />
  <path d="M458 158V200H500" stroke="#6DFFA8" stroke-width="10" stroke-linecap="round" stroke-linejoin="round" />
  <path d="M420 232L458 200L496 232" stroke="#3FE0FF" stroke-width="8" stroke-linecap="round" stroke-linejoin="round" />
  <rect x="120" y="268" width="220" height="20" rx="10" fill="url(#glow)" />
  <rect x="120" y="302" width="180" height="16" rx="8" fill="#1E2A52" />
</svg>
